<?xml version="1.0" encoding="utf-8"?>
<!-- Generator: Adobe Illustrator 21.1.0, SVG Export Plug-In . SVG Version: 6.00 Build 0)  -->
<svg version="1.1" id="Layer_1" xmlns="http://www.w3.org/2000/svg" xmlns:xlink="http://www.w3.org/1999/xlink" x="0px" y="0px"
	 viewBox="0 0 204 59" style="enable-background:new 0 0 204 59;" xml:space="preserve">
<style type="text/css">
	.st0{fill:#861F41;}
</style>
<g id="vassar_logo">
	<path class="st0" d="M162.4,45.3c0,2.2-0.1,3.5-1.1,4.5c-1.6,1.6-3.9,2.6-6.9,2.6c-4.2,0-5.7-3.2-5.7-5.2c0-2.1,0.7-4.2,3.1-5.9
		c2.4-1.6,6.3-2.8,10.7-3.2L162.4,45.3z M173.8,51.6c-0.9,0.5-3.2,1.9-4.9-0.4c-0.9-1.1-0.8-3.7-0.8-6.4l0.1-11.2
		c0-3.6-0.5-12.5-10.6-12.5c-7.3,0-13.7,2.7-13.7,9.3c0,1.7,1.5,1.5,3.1,1.2c2-0.3,2.6-0.6,2.6-1.5c0-0.9-0.1-0.5-0.1-2
		c0.1-3.1,2.3-5.4,5.8-5.4c3.4,0,7.2,2,7.1,10.6l0,2.7c-15.7,2.3-20.1,7-20.1,12c0,7.6,7.7,7.7,10.3,7.3c2.9-0.4,6.7-1.5,10-4.6
		c0.8,3.5,2.9,4.8,5.9,4.8c2.9,0,5.4-1.8,5.8-3.1C174.7,51.7,174.2,51.4,173.8,51.6"/>
	<path class="st0" d="M113.8,30.5c0,4.2,2.4,6.7,5.8,8.5c3.7,2,4,1.8,7.3,3.2c3,1.3,4.6,3.1,4.6,5.9c0,3.8-3.2,5.6-7,5.6
		c-5.5,0-9.4-5-10-7.7c-0.3-1.1-0.2-1.5-1-1.5c-0.9,0-0.8,0.5-0.6,2.6c0.1,1,0.2,3.9,0.2,5.2c0,1.3,0,2,0.8,2c0.6,0,1.8-0.1,1.8-0.1
		c2.9,0.7,5.5,1.6,8.6,1.6c3.4,0,11.5-2.4,11.5-10.2c0-5-3.3-7.7-9-10c-6.2-2.5-9.2-3.5-9.2-7.5c0-3.1,2.2-5.4,6.2-5.4
		c4.9,0,7.7,3.6,8.8,6.5c0.5,1.2,0.4,1.5,1.2,1.5c0.4,0,0.7,0,0.7-1.4c0-0.5,0-1.1-0.1-2.5c-0.2-3.5-0.2-4.1-1.4-4.5
		c-3.5-1.1-5.4-1.4-7.9-1.4C116.5,21,113.8,26.3,113.8,30.5"/>
	<path class="st0" d="M84.7,30.5c0,4.2,2.4,6.7,5.8,8.5c3.7,2,4,1.8,7.3,3.2c3,1.3,4.6,3.1,4.6,5.9c0,3.8-3.2,5.6-7,5.6
		c-5.5,0-9.4-5-10-7.7c-0.3-1.1-0.2-1.5-1-1.5c-0.9,0-0.8,0.5-0.6,2.6c0.1,1,0.2,3.9,0.2,5.2c0,1.3,0,2,0.8,2c0.6,0,1.8-0.1,1.8-0.1
		c2.9,0.7,5.5,1.6,8.6,1.6c3.4,0,11.5-2.4,11.5-10.2c0-5-3.3-7.7-9-10c-6.2-2.5-9.2-3.5-9.2-7.5c0-3.1,2.2-5.4,6.2-5.4
		c4.9,0,7.7,3.6,8.8,6.5c0.5,1.2,0.4,1.5,1.2,1.5c0.4,0,0.7,0,0.7-1.4c0-0.5,0-1.1-0.1-2.5c-0.2-3.5-0.2-4.1-1.4-4.5
		c-3.5-1.1-5.4-1.4-7.9-1.4C87.3,21,84.7,26.3,84.7,30.5"/>
	<path class="st0" d="M187,22c0.1-0.9-0.2-1.2-0.7-1.4c-0.6-0.2-1.1,0.3-1.5,0.5c-3.4,1.9-6,2.7-7.5,3c-1.1,0.2-1.2,0.6-1.2,1
		c0,0.6,0.3,1,1.4,1c3.8-0.1,3.8,2.9,3.8,7l0,14.8c0,2.4,0,3.3-0.4,3.9c-0.5,0.8-1.3,1.5-2.5,1.6c-1.1,0.3-1.4,0.7-1.4,1.4
		c0,0.6,0.5,0.8,1.3,0.8c0.3,0,3.5-0.6,5.7-0.6s8.4,0.6,8.4,0.6c1.5,0.2,1.8-0.3,1.8-0.8c0-1-0.9-0.8-2.3-1.2
		c-3.7-1-5.2-1.4-5.2-5.5l0-13.5c0-2.3,1.4-7.9,6.9-7.9c1.7,0,3.1,0.5,4.8,2.9c0.5,0.7,2.2-0.9,3.1-2.7c0.7-1.1-1.6-3.8-3.7-4.9
		c-2.8-1.5-7.5,0.3-11.2,7.5l-0.5,0C186.4,29.3,186.5,26.5,187,22"/>
	<path class="st0" d="M16.9,6.5c0.7-1.5,2.8-1.9,3.4-1.9c0.2,0,0.9-0.6,0.8-1.4c-0.1-0.6-0.8-0.9-1.5-0.8c-0.9,0.2-5.7,0.8-8.1,0.8
		C9,3.2,3.6,2.7,3.4,2.7C2.5,2.7,2,3.1,2,3.7c0,0.4,0.3,1,0.8,1.2c0,0,3,0,5,2.4c1.2,1.4,1.3,2.4,2.3,4.6l17.6,44c0.4,1,4.7,1,5.2,0
		c0,0,16.1-44.2,16.8-45.9c0.4-1.1,1.1-2.6,2.3-3.9c1.5-1.6,4.5-1.8,4.6-1.7c0.8,0,1.1-0.7,1.1-1.2s-0.2-0.9-1.2-0.9
		c0,0-5.8,0.4-7.6,0.3c-1.9,0-7.8-0.3-8-0.3c-0.9,0-1.4,0.4-1.4,1c0,0.6,0.6,1.1,1.1,1.1c0.1-0.1,4,0.1,5.2,1.3
		c0.9,0.9,1.3,2.4,0.5,4.8C45.7,12.9,34,44.8,34,44.8c-0.5,1.3-0.9,2.1-1.8,2.1c-1,0-1.3-0.7-1.7-1.6l-13-32.5
		C16.6,10.1,16.1,8.3,16.9,6.5"/>
	<path class="st0" d="M69.1,45.3c0,2.2-0.1,3.5-1.1,4.5c-1.6,1.6-3.9,2.6-6.9,2.6c-4.2,0-5.7-3.2-5.7-5.2c0-2.1,0.7-4.2,3.1-5.9
		c2.4-1.6,6.3-2.8,10.7-3.2L69.1,45.3z M80.6,51.6c-0.9,0.5-3.2,1.9-4.9-0.4c-0.9-1.1-0.8-3.7-0.8-6.4l0.1-11.2
		c0-3.6-0.5-12.5-10.6-12.5c-7.3,0-13.7,2.7-13.7,9.3c0,1.7,1.5,1.5,3.1,1.2c2-0.3,2.6-0.6,2.6-1.5c0-0.9-0.1-0.5-0.1-2
		c0.1-3.1,2.3-5.4,5.8-5.4c3.4,0,7.2,2,7.1,10.6l0,2.7c-15.7,2.3-20.1,7-20.1,12c0,7.6,7.7,7.7,10.3,7.3c2.9-0.4,6.7-1.5,10-4.6
		c0.8,3.5,2.9,4.8,5.9,4.8c2.9,0,5.4-1.8,5.8-3.1C81.4,51.7,80.9,51.4,80.6,51.6"/>
</g>
</svg>
